<?xml version="1.0" encoding="utf-8"?>
<svg width="141" height="24" viewBox="0 0 141 24" xmlns="http://www.w3.org/2000/svg">
  <defs>
    <linearGradient id="a" x1="51.617%" x2="29.582%" y1="17.649%" y2="100%">
      <stop offset="0" stop-color="#2E2E2E"/>
      <stop offset="0" stop-color="#2E2E2E"/>
      <stop offset="1" stop-color="#121212"/>
    </linearGradient>
    <linearGradient id="b" x1="100%" x2="12.03%" y1="46.232%" y2="53.768%">
      <stop offset="0" stop-color="#2E2E2E"/>
      <stop offset="1" stop-color="#121212"/>
    </linearGradient>
  </defs>
  <g fill="none" fill-rule="nonzero">
    <path fill="url(#a)" d="M5.1 8.07C8.903 6.752 9.552 3.318 9.065.161c0-.114.097-.196.195-.146C12.903 1.788 17 5.678 17 11.537 17 16.029 13.535 20 8.5 20 3.125 20 0 16.142 0 11.537c0-2.685 1.893-5.452 3.934-6.623.097-.066.227 0 .227.113.048.602.21 2.132.874 3.027.016.016.049.016.064.016z" transform="translate(2 2)"/>
    <path fill="url(#b)" d="M89.31 6.26c.198-.695.946-1.26 1.67-1.26h45.019c.724 0 1.15.566.953 1.26l-3.262 11.478c-.198.697-.947 1.262-1.67 1.262H87.003c-.725 0-1.15-.567-.954-1.262l3.263-11.477z" transform="translate(2 2)"/>
    <path fill="#FFF" d="M95.153 16.894v-2.112h1.38c1.17 0 1.82-.857 1.82-1.882 0-1.034-.642-1.9-1.82-1.9H94v5.894h1.153zm1.226-3.19h-1.226v-1.626h1.226c.455 0 .796.327.796.813 0 .495-.341.813-.796.813zm6.13 3.19v-1.105h-2.29V11h-1.152v5.894h3.443zm1.495 0l.34-1.016h2.42l.342 1.016h1.258L106.277 11h-1.445l-2.095 5.894h1.267zm2.444-2.103h-1.795l.902-2.704.893 2.704zm4.312 2.103v-4.79h1.575V11h-4.32v1.105h1.583v4.789h1.162zm3.467 0V11h-1.153v5.894h1.153zm2.225 0v-3.959l2.582 3.959h1.112V11h-1.153v3.817L116.484 11H115.3v5.894h1.153zm7.194.106c1.64 0 2.411-.999 2.411-2.465V11h-1.169v3.5c0 .821-.414 1.387-1.242 1.387-.845 0-1.259-.566-1.259-1.388V11h-1.169v3.543c0 1.45.771 2.457 2.428 2.457zm4.636-.106v-4.242l1.527 4.242h.503l1.527-4.242v4.242H133V11h-1.624l-1.315 3.676L128.745 11h-1.616v5.894h1.153z"/>
    <path d="M 27.579 3.954 L 27.579 7.634 L 30.271 7.634 L 30.271 10.702 L 27.563 10.702 L 27.563 17.518 C 27.563 17.831 27.637 18.855 28.591 18.855 C 29.071 18.855 29.529 18.655 29.695 18.462 L 29.982 18.126 L 30.844 20.91 L 30.732 21.015 C 30.085 21.629 29.112 21.94 27.84 21.94 L 27.794 21.94 C 26.651 21.94 25.756 21.625 25.137 21.004 C 24.505 20.37 24.185 19.441 24.185 18.244 L 24.185 10.702 L 21.983 10.702 L 21.983 7.633 L 24.185 7.633 L 24.185 3.953 L 27.579 3.953 L 27.579 3.954 Z" style="fill: rgb(66, 66, 66);"/>
    <path fill="#424242" d="M 37.307 7.321 C 41.313 7.321 44.11 10.442 44.11 14.913 L 44.11 15.853 L 33.853 15.853 C 34.192 17.817 35.718 19.07 37.812 19.07 C 39.138 19.07 40.589 18.502 41.424 17.657 L 41.632 17.447 L 43.239 19.796 L 43.089 19.941 C 41.753 21.241 39.776 21.958 37.519 21.958 C 33.263 21.958 30.291 18.946 30.291 14.631 C 30.309 10.463 33.325 7.321 37.307 7.321 Z M 52.562 7.338 L 52.562 10.791 L 52.27 10.732 C 51.985 10.677 51.695 10.651 51.404 10.654 C 50.309 10.654 48.79 11.428 48.223 12.264 L 48.223 21.611 L 44.829 21.611 L 44.829 7.651 L 48.239 7.651 L 48.239 9.214 C 49.362 8.028 50.846 7.337 52.319 7.337 L 52.563 7.337 L 52.562 7.338 Z M 37.308 10.208 C 34.925 10.208 34.023 12.028 33.831 13.278 L 40.801 13.278 C 40.609 11.172 38.885 10.208 37.309 10.208 L 37.308 10.208 Z"/>
    <path fill="#424242" d="M 65.54 2.534 L 65.54 21.644 L 62.146 21.644 L 62.146 20.194 C 61.066 21.32 59.629 21.957 58.116 21.957 C 54.417 21.957 51.932 19.019 51.932 14.647 C 51.932 10.264 54.417 7.32 58.116 7.32 C 59.638 7.32 61.074 7.963 62.146 9.105 L 62.146 2.535 L 65.54 2.535 L 65.54 2.534 Z M 58.949 10.405 C 56.851 10.405 55.441 12.11 55.441 14.646 C 55.441 17.173 56.851 18.871 58.949 18.871 C 60.172 18.871 61.503 18.197 62.147 17.261 L 62.147 12.051 C 61.475 11.094 60.144 10.406 58.948 10.406 L 58.949 10.405 Z"/>
    <path fill="#424242" d="M 70.134 7.763 L 70.134 21.74 L 66.738 21.74 L 66.738 7.762 L 70.132 7.762 L 70.134 7.763 Z M 79.631 7.433 C 82.566 7.433 84.182 9.056 84.182 12.003 L 84.182 21.74 L 80.789 21.74 L 80.789 12.813 L 80.799 12.813 C 80.731 11.228 79.975 10.519 78.375 10.519 C 76.945 10.519 75.781 11.393 75.193 12.169 L 75.193 21.74 L 71.799 21.74 L 71.799 7.762 L 75.193 7.762 L 75.193 9.24 C 76.175 8.3 77.74 7.434 79.631 7.434 L 79.631 7.433 Z M 68.419 2.07 C 69.544 2.07 70.459 2.995 70.459 4.132 C 70.459 5.27 69.544 6.196 68.419 6.196 C 67.295 6.196 66.379 5.27 66.379 4.132 C 66.379 3.015 67.314 2.07 68.419 2.07 Z"/>
  </g>
</svg>