<?xml version="1.0" encoding="utf-8"?>
<svg width="101" height="24" viewBox="0 0 101 24" xmlns="http://www.w3.org/2000/svg">
  <defs>
    <linearGradient id="a" x1="100%" x2="0%" y1="0%" y2="100%">
      <stop offset="0" stop-color="#FF7854"/>
      <stop offset="1" stop-color="#ff4458"/>
    </linearGradient>
    <linearGradient id="b" x1="100%" x2="0%" y1="-13.237%" y2="113.874%">
      <stop offset="0" stop-color="#FF7854"/>
      <stop offset="1" stop-color="#ff4458"/>
    </linearGradient>
  </defs>
  <g fill="none" fill-rule="nonzero">
    <path fill="url(#a)" d="M5.156 8.095C8.946 6.788 9.591 3.387 9.108.258c0-.113.096-.193.192-.145 3.628 1.757 7.708 5.61 7.708 11.415 0 4.45-3.451 8.385-8.466 8.385-5.354 0-8.465-3.82-8.465-8.384 0-2.661 1.887-5.401 3.918-6.563.097-.064.226 0 .226.113.048.597.21 2.113.87 3 .016.016.048.016.064.016h.001z" transform="translate(2 2)"/>
    <path fill="url(#b)" d="M97.475 13.462v-1.92h-4.349V6.803h-2.114v4.739h-4.374v1.92h4.374v4.932h2.114v-4.932" transform="translate(2 2)"/>
    <path d="M 29.653 18.248 L 29.935 17.93 L 30.785 20.573 L 30.674 20.675 C 30.037 21.258 29.079 21.553 27.827 21.553 L 27.781 21.553 C 26.654 21.553 25.774 21.255 25.164 20.665 C 24.542 20.064 24.228 19.18 24.228 18.042 L 24.228 10.879 L 22.058 10.879 L 22.058 7.961 L 24.227 7.961 L 24.227 4.465 L 27.567 4.465 L 27.567 7.963 L 30.217 7.963 L 30.217 10.878 L 27.551 10.878 L 27.551 17.352 C 27.551 17.65 27.624 18.622 28.563 18.622 C 29.036 18.622 29.487 18.432 29.65 18.248 L 29.653 18.248 Z" style="fill: rgb(66, 66, 66);"/>
    <path fill="#424242" d="M 37.154 7.754 C 41.098 7.754 43.854 10.719 43.854 14.964 L 43.854 15.859 L 33.751 15.859 C 34.084 17.724 35.587 18.916 37.649 18.916 C 38.953 18.916 40.382 18.376 41.206 17.573 L 41.41 17.373 L 42.992 19.603 L 42.846 19.742 C 41.53 20.977 39.583 21.657 37.36 21.657 C 33.17 21.657 30.243 18.796 30.243 14.697 C 30.259 10.738 33.23 7.753 37.151 7.753 L 37.153 7.754 L 37.154 7.754 Z M 33.731 13.414 L 40.593 13.414 C 40.502 12.457 40.068 11.749 39.47 11.27 C 38.816 10.746 37.965 10.497 37.153 10.497 C 34.807 10.497 33.92 12.223 33.731 13.412 L 33.731 13.413 L 33.731 13.414 Z M 51.934 7.769 L 52.174 7.769 L 52.174 11.049 L 51.886 10.994 C 51.605 10.942 51.32 10.917 51.034 10.92 C 49.956 10.92 48.46 11.654 47.901 12.447 L 47.901 21.327 L 44.56 21.327 L 44.56 8.068 L 47.917 8.068 L 47.917 9.552 C 49.023 8.426 50.485 7.769 51.934 7.769 L 51.934 7.77 L 51.934 7.769 Z"/>
    <path fill="#424242" d="M 62.421 9.46 L 62.421 3.218 L 65.763 3.218 L 65.763 21.37 L 62.421 21.37 L 62.421 19.992 C 61.377 21.059 59.948 21.663 58.455 21.668 C 54.813 21.668 52.367 18.878 52.367 14.724 C 52.367 10.561 54.813 7.764 58.455 7.764 C 59.953 7.764 61.366 8.375 62.422 9.46 L 62.421 9.46 Z M 62.421 12.257 C 61.761 11.349 60.451 10.695 59.273 10.695 C 57.208 10.695 55.819 12.315 55.819 14.724 C 55.819 17.124 57.208 18.736 59.273 18.736 C 60.477 18.736 61.787 18.096 62.421 17.207 L 62.421 12.257 Z"/>
    <path fill="#424242" d="M 67.865 21.301 L 67.865 8.024 L 71.206 8.024 L 71.206 21.301 L 67.865 21.301 Z M 69.519 2.614 C 70.627 2.614 71.528 3.493 71.528 4.574 C 71.528 5.656 70.628 6.534 69.519 6.534 C 68.412 6.534 67.511 5.656 67.511 4.574 C 67.511 3.514 68.431 2.616 69.519 2.616 L 69.519 2.614 Z M 80.559 7.709 C 83.447 7.709 85.039 9.251 85.039 12.051 L 85.039 21.3 L 81.697 21.3 L 81.697 12.82 L 81.708 12.82 C 81.64 11.316 80.895 10.64 79.32 10.64 C 77.914 10.64 76.768 11.471 76.188 12.207 L 76.188 21.301 L 72.846 21.301 L 72.846 8.022 L 76.188 8.022 L 76.188 9.424 C 77.155 8.531 78.697 7.709 80.558 7.709 L 80.558 7.71 L 80.559 7.709 Z"/>
  </g>
</svg>