<?xml version="1.0" encoding="utf-8"?>
<svg width="120" height="24" viewBox="0 0 120 24" xmlns="http://www.w3.org/2000/svg">
  <defs>
    <linearGradient id="a" x1="0%" x2="100%" y1=".687%" y2="99.313%">
      <stop offset="0" stop-color="#E9AA43"/>
      <stop offset="0.1987" stop-color="#E09220"/>
      <stop offset="0.4213" stop-color="#E9AA43"/>
      <stop offset="0.5967" stop-color="#F4D37C"/>
      <stop offset="0.7801" stop-color="#E9AA43"/>
      <stop offset="1" stop-color="#E39A2C"/>
    </linearGradient>
  </defs>
  <g fill="none" fill-rule="nonzero">
    <path fill="url(#a)" d="M5.027 7.858C8.775 6.574 9.414 3.23 8.934.157c0-.112.096-.19.193-.143 3.589 1.727 7.625 5.514 7.625 11.218 0 4.374-3.414 8.24-8.376 8.24C3.08 19.472 0 15.717 0 11.232c0-2.614 1.866-5.308 3.877-6.448.097-.064.223 0 .223.11.049.587.208 2.076.862 2.948.016.016.049.016.065.016zm82.84-1.27c.194-.672.922-1.218 1.625-1.218h25.005c.706 0 1.12.547.928 1.218l-3.176 11.086c-.193.672-.92 1.218-1.624 1.218H85.62c-.706 0-1.12-.546-.928-1.218l3.176-11.086z" transform="translate(2 2)"/>
    <path fill="#FAFBFC" d="M94.806 17c.956 0 1.708-.437 2.244-1.097v-2.22h-2.514v1.076h1.392v.694c-.214.216-.657.443-1.123.443-.957 0-1.652-.807-1.652-1.9 0-1.095.695-1.903 1.652-1.903.561 0 1.012.348 1.249.757l.933-.556c-.395-.684-1.083-1.292-2.18-1.292-1.541 0-2.807 1.163-2.807 2.994C92 15.82 93.266 17 94.807 17zm5.635-.01c-1.588 0-2.75-1.25-2.75-2.996 0-1.744 1.162-2.994 2.751-2.994 1.597 0 2.759 1.25 2.759 2.994 0 1.745-1.162 2.995-2.759 2.995l-.001.001zm0-1.095c.974 0 1.604-.824 1.604-1.9 0-1.086-.63-1.903-1.604-1.903-.972 0-1.596.817-1.596 1.902 0 1.077.624 1.902 1.596 1.902v-.001zm6.9.99V15.8h-2.229v-4.705h-1.122v5.79h3.352zm2.862 0h-2.08v-5.79h2.08c1.652 0 2.797 1.155 2.797 2.9 0 1.744-1.145 2.89-2.797 2.89zm0-1.085c1.043 0 1.652-.824 1.652-1.806 0-1.025-.57-1.814-1.652-1.814h-.957v3.62h.957z"/>
    <path d="M 29.641 17.775 L 29.923 17.457 L 30.773 20.1 L 30.662 20.202 C 30.025 20.785 29.067 21.08 27.815 21.08 L 27.769 21.08 C 26.642 21.08 25.762 20.782 25.152 20.192 C 24.53 19.591 24.216 18.707 24.216 17.569 L 24.216 10.406 L 22.046 10.406 L 22.046 7.488 L 24.215 7.488 L 24.215 3.992 L 27.555 3.992 L 27.555 7.49 L 30.205 7.49 L 30.205 10.405 L 27.539 10.405 L 27.539 16.879 C 27.539 17.177 27.612 18.149 28.551 18.149 C 29.024 18.149 29.475 17.959 29.638 17.775 L 29.641 17.775 Z" style="fill: rgb(66, 66, 66);"/>
    <path fill="#424242" d="M 37.359 7.097 C 41.303 7.097 44.059 10.062 44.059 14.307 L 44.059 15.202 L 33.956 15.202 C 34.289 17.067 35.792 18.259 37.854 18.259 C 39.158 18.259 40.587 17.719 41.411 16.916 L 41.615 16.716 L 43.197 18.946 L 43.051 19.085 C 41.735 20.32 39.788 21 37.565 21 C 33.375 21 30.448 18.139 30.448 14.04 C 30.464 10.081 33.435 7.096 37.356 7.096 L 37.358 7.097 L 37.359 7.097 Z M 33.936 12.757 L 40.798 12.757 C 40.707 11.8 40.273 11.092 39.675 10.613 C 39.021 10.089 38.17 9.84 37.358 9.84 C 35.012 9.84 34.125 11.566 33.936 12.755 L 33.936 12.756 L 33.936 12.757 Z M 52.139 7.112 L 52.379 7.112 L 52.379 10.392 L 52.091 10.337 C 51.81 10.285 51.525 10.26 51.239 10.263 C 50.161 10.263 48.665 10.997 48.106 11.79 L 48.106 20.67 L 44.765 20.67 L 44.765 7.411 L 48.122 7.411 L 48.122 8.895 C 49.228 7.769 50.69 7.112 52.139 7.112 L 52.139 7.113 L 52.139 7.112 Z"/>
    <path fill="#424242" d="M 61.949 8.789 L 61.949 2.547 L 65.291 2.547 L 65.291 20.699 L 61.949 20.699 L 61.949 19.321 C 60.905 20.388 59.476 20.992 57.983 20.997 C 54.341 20.997 51.895 18.207 51.895 14.053 C 51.895 9.89 54.341 7.093 57.983 7.093 C 59.481 7.093 60.894 7.704 61.95 8.789 L 61.949 8.789 Z M 61.949 11.586 C 61.289 10.678 59.979 10.024 58.801 10.024 C 56.736 10.024 55.347 11.644 55.347 14.053 C 55.347 16.453 56.736 18.065 58.801 18.065 C 60.005 18.065 61.315 17.425 61.949 16.536 L 61.949 11.586 Z"/>
    <path fill="#424242" d="M 67.063 20.684 L 67.063 7.407 L 70.404 7.407 L 70.404 20.684 L 67.063 20.684 Z M 68.717 1.997 C 69.825 1.997 70.726 2.876 70.726 3.957 C 70.726 5.039 69.826 5.917 68.717 5.917 C 67.61 5.917 66.709 5.039 66.709 3.957 C 66.709 2.897 67.629 1.999 68.717 1.999 L 68.717 1.997 Z M 79.757 7.092 C 82.645 7.092 84.237 8.634 84.237 11.434 L 84.237 20.683 L 80.895 20.683 L 80.895 12.203 L 80.906 12.203 C 80.838 10.699 80.093 10.023 78.518 10.023 C 77.112 10.023 75.966 10.854 75.386 11.59 L 75.386 20.684 L 72.044 20.684 L 72.044 7.405 L 75.386 7.405 L 75.386 8.807 C 76.353 7.914 77.895 7.092 79.756 7.092 L 79.756 7.093 L 79.757 7.092 Z"/>
  </g>
</svg>