<svg class="Expand" viewBox="0 0 24 24" width="24px" height="24px" focusable="false" aria-hidden="true" role="presentation"><defs><linearGradient x1="100%" y1="100%" x2="2.058%" y2="9.36%" id="platinumLikesYouGradientA"><stop stop-color="#2E2E2E" offset="0%"></stop><stop stop-color="#121212" offset="33.447%"></stop><stop stop-color="#454545" offset="51.294%"></stop><stop stop-color="#121212" offset="71.525%"></stop><stop stop-color="#292929" offset="100%"></stop><stop stop-color="#2E2E2E" offset="100%"></stop></linearGradient><linearGradient x1="100%" y1="0%" x2="4.431%" y2="105.558%" id="platinumLikesYouGradientB"><stop stop-color="#FFF" offset="0%"></stop><stop stop-color="#191919" offset="100%"></stop></linearGradient><linearGradient x1="4.187%" y1="-1.557%" x2="96.755%" y2="102.146%" id="platinumLikesYouGradientD"><stop stop-color="#2E2E2E" offset="0%"></stop><stop stop-color="#121212" offset="27.594%"></stop><stop stop-color="#454545" offset="49.287%"></stop><stop stop-color="#121212" offset="72.237%"></stop><stop stop-color="#292929" offset="100%"></stop></linearGradient><path d="M9.03 18a9 9 0 100-18 9 9 0 000 18z" id="platinumLikesYouPathC"></path></defs><g fill="none" fill-rule="evenodd"><path d="M9 17.474a8.5 8.5 0 100-17 8.5 8.5 0 000 17z" transform="translate(3 3)" fill="url(#platinumLikesYouGradientA)" stroke="url(#platinumLikesYouGradientB)" stroke-width="3"></path><g transform="translate(2.97 3)" fill-rule="nonzero"><use fill="#2E2E2E" xlink:href="#platinumLikesYouPathC"></use><use fill="url(#platinumLikesYouGradientD)" xlink:href="#platinumLikesYouPathC"></use></g><g><path d="M12.573 9.06c.208 0 .42.027.634.083.63.164.897.451 1.279 1.043.485-.211.83-.33 1.203-.33.17 0 .346.025.542.077 1.174.306 1.742 1.316 1.35 2.401-.165.457-.513.838-.989 1.087l-.078.038-.078.037-.2.08-3.276 1.311a.268.268 0 01-.1.02.262.262 0 01-.213-.102l-2.042-2.95a1.668 1.668 0 01-.1-1.367c.32-.888 1.139-1.428 2.068-1.428zm-1.928 4.312l.646.934H8.843c-.303 0-.55-.209-.55-.467s.247-.467.55-.467h1.802zM9.52 11.516c.04.168.099.333.183.492l.01.019.012.018.28.405h-2.44c-.304 0-.55-.209-.55-.467s.246-.467.55-.467H9.52zm.466-1.856c-.17.212-.306.453-.402.718a2.09 2.09 0 00-.064.216H6.7c-.304 0-.55-.209-.55-.467s.246-.467.55-.467h3.287z" fill="#000" fill-rule="nonzero"></path><path d="M12.573 9.06c.208 0 .42.027.634.083.63.164.897.451 1.279 1.043.485-.211.83-.33 1.203-.33.17 0 .346.025.542.077 1.174.306 1.742 1.316 1.35 2.401-.165.457-.513.838-.989 1.087l-.078.038-.078.037-.2.08-3.276 1.311a.268.268 0 01-.1.02.262.262 0 01-.213-.102l-2.042-2.95a1.668 1.668 0 01-.1-1.367c.32-.888 1.139-1.428 2.068-1.428zm-1.928 4.312l.646.934H8.843c-.303 0-.55-.209-.55-.467s.247-.467.55-.467h1.802zM9.52 11.516c.04.168.099.333.183.492l.01.019.012.018.28.405h-2.44c-.304 0-.55-.209-.55-.467s.246-.467.55-.467H9.52zm.466-1.856c-.17.212-.306.453-.402.718a2.09 2.09 0 00-.064.216H6.7c-.304 0-.55-.209-.55-.467s.246-.467.55-.467h3.287z" fill="#FFF"></path></g></g></svg>