<svg class="Expand" viewBox="0 0 24 24" width="24px" height="24px" focusable="false" aria-hidden="true" role="presentation"><defs><linearGradient x1="100%" y1="100%" x2="2.058%" y2="9.36%" id="priorityLikesGradientA"><stop stop-color="#2E2E2E" offset="0%"></stop><stop stop-color="#121212" offset="33.447%"></stop><stop stop-color="#454545" offset="51.294%"></stop><stop stop-color="#121212" offset="71.525%"></stop><stop stop-color="#292929" offset="100%"></stop><stop stop-color="#2E2E2E" offset="100%"></stop></linearGradient><linearGradient x1="100%" y1="0%" x2="4.431%" y2="105.558%" id="priorityLikesGradientB"><stop stop-color="#FFF" offset="0%"></stop><stop stop-color="#191919" offset="100%"></stop></linearGradient><linearGradient x1="4.187%" y1="-1.557%" x2="96.755%" y2="102.146%" id="priorityLikesGradientD"><stop stop-color="#2E2E2E" offset="0%"></stop><stop stop-color="#121212" offset="27.594%"></stop><stop stop-color="#454545" offset="49.287%"></stop><stop stop-color="#121212" offset="72.237%"></stop><stop stop-color="#292929" offset="100%"></stop></linearGradient><path d="M9.03 18a9 9 0 100-18 9 9 0 000 18z" id="priorityLikesPathC"></path></defs><g fill="none" fill-rule="evenodd"><path d="M9 17.474a8.5 8.5 0 100-17 8.5 8.5 0 000 17z" transform="translate(3 3)" fill="url(#priorityLikesGradientA)" stroke="url(#priorityLikesGradientB)" stroke-width="3"></path><g transform="translate(2.97 3)" fill-rule="nonzero"><use fill="#2E2E2E" xlink:href="#priorityLikesPathC"></use><use fill="url(#priorityLikesGradientD)" xlink:href="#priorityLikesPathC"></use></g><g><path d="M7 7h11v11H7z"></path><path d="M15.789 11.55c0-1.355-.92-2.34-2.19-2.34-.679 0-1.045.249-1.633.81-.588-.562-.955-.81-1.635-.81-1.268 0-2.189.983-2.189 2.338 0 .569.207 1.106.586 1.53l3.069 2.76a.26.26 0 00.339 0l2.767-2.47.17-.152.063-.066.064-.066c.381-.426.589-.964.589-1.534" fill="#000" fill-rule="nonzero"></path><path d="M16 11.448c0-1.417-.963-2.447-2.29-2.447-.711 0-1.094.26-1.71.846C11.386 9.26 11.003 9 10.29 9 8.963 9 8 10.029 8 11.447c0 .595.216 1.157.613 1.601l3.21 2.886a.272.272 0 00.355 0l2.895-2.584.178-.158.066-.07.067-.069A2.39 2.39 0 0016 11.448" fill="#FFF"></path></g></g></svg>