<svg class="Expand" viewBox="0 0 24 24" width="24px" height="24px" focusable="false" aria-hidden="true" role="presentation"><defs><linearGradient x1="100%" y1="100%" x2="2.05817053%" y2="9.35982795%" id="attachAMessageGradientA"><stop stop-color="#2E2E2E" offset="0%"></stop><stop stop-color="#121212" offset="33.4471612%"></stop><stop stop-color="#454545" offset="51.2941523%"></stop><stop stop-color="#121212" offset="71.5252809%"></stop><stop stop-color="#292929" offset="100%"></stop><stop stop-color="#2E2E2E" offset="100%"></stop></linearGradient><linearGradient x1="100%" y1="3.46944695e-16%" x2="4.43068924%" y2="105.558248%" id="attachAMessageGradientB"><stop stop-color="#FFFFFF" offset="0%"></stop><stop stop-color="#191919" offset="100%"></stop></linearGradient><linearGradient x1="100%" y1="94.8753463%" x2="2.05817053%" y2="13.5251641%" id="attachAMessageGradientC"><stop stop-color="#2E2E2E" offset="0%"></stop><stop stop-color="#121212" offset="33.4471612%"></stop><stop stop-color="#454545" offset="51.2941523%"></stop><stop stop-color="#121212" offset="71.5252809%"></stop><stop stop-color="#292929" offset="100%"></stop><stop stop-color="#2E2E2E" offset="100%"></stop></linearGradient><linearGradient x1="100%" y1="5.12465374%" x2="4.43068924%" y2="99.8639123%" id="attachAMessageGradientD"><stop stop-color="#FFFFFF" offset="0%"></stop><stop stop-color="#191919" offset="100%"></stop></linearGradient><linearGradient x1="4.18683323%" y1="-1.55703359%" x2="96.7548995%" y2="102.146167%" id="attachAMessageGradientE"><stop stop-color="#2E2E2E" offset="0%"></stop><stop stop-color="#121212" offset="27.594489%"></stop><stop stop-color="#454545" offset="49.2873733%"></stop><stop stop-color="#121212" offset="72.2365921%"></stop><stop stop-color="#292929" offset="100%"></stop></linearGradient><path d="M9.02941176,18 C13.9999745,18 18.0294118,13.9705627 18.0294118,9 C18.0294118,4.02943726 13.9999745,0 9.02941176,0 C4.05884902,0 0.0294117647,4.02943726 0.0294117647,9 C0.0294117647,13.9705627 4.05884902,18 9.02941176,18 Z" id="attachAMessagePathC"></path></defs><g id="Platinum-attach-a-message" stroke="none" stroke-width="1" fill="none" fill-rule="evenodd"><g id="platinum-attach-a-message" transform="translate(2.000000, 3.000000)"><g id="Oval-740-Copy-4"><g id="attachAMessagePathA-link" transform="translate(1.000000, 0.000000)" stroke="url(#attachAMessageGradientB)" stroke-width="3"><path d="M9,17.4736842 C13.6944204,17.4736842 17.5,13.6681046 17.5,8.97368421 C17.5,4.27926384 13.6944204,0.473684211 9,0.473684211 C4.30557963,0.473684211 0.5,4.27926384 0.5,8.97368421 C0.5,13.6681046 4.30557963,17.4736842 9,17.4736842 Z" id="attachAMessagePathA"></path></g><g id="attachAMessagePathA-link" transform="translate(0.970588, 0.000000)" fill-rule="nonzero"><g id="attachAMessagePathA"><use fill="#2E2E2E" xlink:href="#attachAMessagePathC"></use><use fill="url(#attachAMessageGradientE)" xlink:href="#attachAMessagePathC"></use></g></g></g><g id="Group-3-Copy" transform="translate(3.000000, 3.000000)"><rect id="Rectangle" x="0" y="0" width="15" height="13"></rect><g id="Fill-2" transform="translate(2.000000, 2.000000)" fill="#FFFFFF" fill-rule="nonzero"><path d="M5,0 C2.23856544,0 0,1.60652276 0,3.58795665 C0,5.56966282 2.23856544,7.17591287 5,7.17591287 L5.11615615,7.17591287 C5.1961161,7.17100529 5.27114194,7.17018751 5.34484922,7.16636992 L5.92365834,7.4256714 L7.07568192,7.94182008 C7.39420809,8.08442242 7.65482007,7.95572605 7.65482007,7.65579758 L7.65482007,6.62786338 C9.06317832,5.99337905 10,4.86946704 10,3.58795665 C10,1.60652276 7.76143455,0 5,0 Z" id="attachAMessagePathB"></path></g></g></g></g></svg>