<svg class="Expand" viewBox="0 0 24 24" width="24px" height="24px" focusable="false" aria-hidden="true" role="presentation"><defs><linearGradient x1="100%" y1="100%" x2="2.05817053%" y2="9.35982795%" id="attachAMessageGradientA"><stop stop-color="#2E2E2E" offset="0%"></stop><stop stop-color="#121212" offset="33.4471612%"></stop><stop stop-color="#454545" offset="51.2941523%"></stop><stop stop-color="#121212" offset="71.5252809%"></stop><stop stop-color="#292929" offset="100%"></stop><stop stop-color="#2E2E2E" offset="100%"></stop></linearGradient><linearGradient x1="100%" y1="3.46944695e-16%" x2="4.43068924%" y2="105.558248%" id="attachAMessageGradientB"><stop stop-color="#FFFFFF" offset="0%"></stop><stop stop-color="#191919" offset="100%"></stop></linearGradient><linearGradient x1="100%" y1="94.8753463%" x2="2.05817053%" y2="13.5251641%" id="attachAMessageGradientC"><stop stop-color="#2E2E2E" offset="0%"></stop><stop stop-color="#121212" offset="33.4471612%"></stop><stop stop-color="#454545" offset="51.2941523%"></stop><stop stop-color="#121212" offset="71.5252809%"></stop><stop stop-color="#292929" offset="100%"></stop><stop stop-color="#2E2E2E" offset="100%"></stop></linearGradient><linearGradient x1="100%" y1="5.12465374%" x2="4.43068924%" y2="99.8639123%" id="attachAMessageGradientD"><stop stop-color="#FFFFFF" offset="0%"></stop><stop stop-color="#191919" offset="100%"></stop></linearGradient><linearGradient x1="4.18683323%" y1="-1.55703359%" x2="96.7548995%" y2="102.146167%" id="attachAMessageGradientE"><stop stop-color="#2E2E2E" offset="0%"></stop><stop stop-color="#121212" offset="27.594489%"></stop><stop stop-color="#454545" offset="49.2873733%"></stop><stop stop-color="#121212" offset="72.2365921%"></stop><stop stop-color="#292929" offset="100%"></stop></linearGradient><path d="M9.02941176,18 C13.9999745,18 18.0294118,13.9705627 18.0294118,9 C18.0294118,4.02943726 13.9999745,0 9.02941176,0 C4.05884902,0 0.0294117647,4.02943726 0.0294117647,9 C0.0294117647,13.9705627 4.05884902,18 9.02941176,18 Z" id="attachAMessagePathC"></path></defs>s<g fill="none" fill-rule="evenodd"><path d="M11.91 21.82c5.473 0 9.91-4.437 9.91-9.91S17.382 2 11.91 2 2 6.437 2 11.91s4.437 9.91 9.91 9.91z" fill="#000" fill-rule="nonzero"></path><path d="M9.91 19.82c5.473 0 9.91-4.437 9.91-9.91S15.382 0 9.91 0 0 4.437 0 9.91s4.437 9.91 9.91 9.91z" fill="url(#platinumAllGoldIconA)" fill-rule="nonzero" transform="translate(2 2)"></path><path d="M6.002 6.002h12.81v12.81H6.001z"></path><path d="M10.95 11.1c1.455-.506 1.702-1.825 1.517-3.038 0-.044.037-.075.074-.056 1.393.68 2.959 2.175 2.959 4.425 0 1.726-1.325 3.25-3.25 3.25-2.055 0-3.25-1.48-3.25-3.25 0-1.031.724-2.094 1.504-2.544.038-.025.087 0 .087.044.019.231.08.819.334 1.162.006.007.019.007.025.007z" fill="#FFF" fill-rule="nonzero"></path></g></svg>