<svg xmlns="http://www.w3.org/2000/svg" width="141" height="24" viewBox="0 0 141 24"><defs><linearGradient id="a" x1="51.617%" x2="29.582%" y1="17.649%" y2="100%"><stop offset="0%" stop-color="#2E2E2E" /><stop offset="0%" stop-color="#2E2E2E" /><stop offset="100%" stop-color="#121212" /></linearGradient><linearGradient id="b" x1="100%" x2="12.03%" y1="46.232%" y2="53.768%"><stop offset="0%" stop-color="#2E2E2E" /><stop offset="100%" stop-color="#121212" /></linearGradient></defs><g fill="none" fill-rule="nonzero"><path fill="url(#a)"	d="M5.1 8.07C8.903 6.752 9.552 3.318 9.065.161c0-.114.097-.196.195-.146C12.903 1.788 17 5.678 17 11.537 17 16.029 13.535 20 8.5 20 3.125 20 0 16.142 0 11.537c0-2.685 1.893-5.452 3.934-6.623.097-.066.227 0 .227.113.048.602.21 2.132.874 3.027.016.016.049.016.064.016z" transform="translate(2 2)" /><path fill="url(#b)"	d="M89.31 6.26c.198-.695.946-1.26 1.67-1.26h45.019c.724 0 1.15.566.953 1.26l-3.262 11.478c-.198.697-.947 1.262-1.67 1.262H87.003c-.725 0-1.15-.567-.954-1.262l3.263-11.477z" transform="translate(2 2)"	/><path	fill="#424242" d="M63.978 2.577v19.11h-3.394v-1.45C59.504 21.363 58.067 22 56.554 22c-3.699 0-6.184-2.938-6.184-7.31 0-4.383 2.485-7.327 6.184-7.327 1.522 0 2.958.643 4.03 1.785v-6.57h3.394zm7.766 4.786c4.006 0 6.803 3.121 6.803 7.592v.94H68.29c.339 1.964 1.865 3.217 3.959 3.217 1.326 0 2.777-.568 3.612-1.413l.208-.21 1.607 2.349-.15.145C76.19 21.283 74.213 22 71.956 22c-4.256 0-7.228-3.012-7.228-7.327.018-4.168 3.034-7.31 7.016-7.31zM27.596 3.997v3.68h2.692v3.068H27.58v6.816c0 .313.074 1.337 1.028 1.337.48 0 .938-.2 1.104-.393l.287-.336.862 2.784-.112.105c-.647.614-1.62.925-2.892.925h-.046c-1.143 0-2.038-.315-2.657-.936-.632-.634-.952-1.563-.952-2.76v-7.542H22V7.676h2.202v-3.68h3.394zm7.813 3.696V21.67h-3.396V7.692h3.394l.002.001zm9.497-.33c2.935 0 4.551 1.623 4.551 4.57v9.737h-3.393v-8.927h.01c-.068-1.585-.824-2.294-2.424-2.294-1.43 0-2.594.874-3.182 1.65v9.571h-3.394V7.692h3.394V9.17c.982-.94 2.547-1.806 4.438-1.806zm42.093.017v3.453l-.292-.059a4.451 4.451 0 00-.866-.078c-1.095 0-2.614.774-3.181 1.61v9.347h-3.394V7.693h3.41v1.563c1.123-1.186 2.607-1.877 4.08-1.877H87zm-29.612 3.068c-2.098 0-3.508 1.705-3.508 4.241 0 2.527 1.41 4.225 3.508 4.225 1.223 0 2.554-.674 3.198-1.61v-5.21c-.672-.957-2.003-1.645-3.199-1.645l.001-.001zm14.358-.198c-2.383 0-3.285 1.82-3.477 3.07h6.97c-.192-2.106-1.916-3.07-3.492-3.07h-.001zM33.694 2c1.125 0 2.04.925 2.04 2.062 0 1.138-.915 2.064-2.04 2.064-1.124 0-2.04-.926-2.04-2.064 0-1.117.935-2.062 2.04-2.062z"	/><path	fill="#FFF"	d="M95.153 16.894v-2.112h1.38c1.17 0 1.82-.857 1.82-1.882 0-1.034-.642-1.9-1.82-1.9H94v5.894h1.153zm1.226-3.19h-1.226v-1.626h1.226c.455 0 .796.327.796.813 0 .495-.341.813-.796.813zm6.13 3.19v-1.105h-2.29V11h-1.152v5.894h3.443zm1.495 0l.34-1.016h2.42l.342 1.016h1.258L106.277 11h-1.445l-2.095 5.894h1.267zm2.444-2.103h-1.795l.902-2.704.893 2.704zm4.312 2.103v-4.79h1.575V11h-4.32v1.105h1.583v4.789h1.162zm3.467 0V11h-1.153v5.894h1.153zm2.225 0v-3.959l2.582 3.959h1.112V11h-1.153v3.817L116.484 11H115.3v5.894h1.153zm7.194.106c1.64 0 2.411-.999 2.411-2.465V11h-1.169v3.5c0 .821-.414 1.387-1.242 1.387-.845 0-1.259-.566-1.259-1.388V11h-1.169v3.543c0 1.45.771 2.457 2.428 2.457zm4.636-.106v-4.242l1.527 4.242h.503l1.527-4.242v4.242H133V11h-1.624l-1.315 3.676L128.745 11h-1.616v5.894h1.153z"	/></g></svg>