<svg class="Expand" viewBox="0 0 24 24" width="24px" height="24px" focusable="false" aria-hidden="true" role="presentation"><path d="M12.17 2.171c-5.497 0-9.941 4.503-9.941 9.942 0 5.556 4.444 10.058 9.941 10.058 5.497 0 9.942-4.502 9.942-9.941 0-5.556-4.445-10.059-9.942-10.059zm5.146 12.866L9.831 6.85a5.848 5.848 0 0 1 2.34-.585c3.274 0 5.847 2.69 5.847 5.848 0 1.17-.234 2.105-.702 2.924zM6.322 12.113c.014-.852.213-1.69.585-2.456l7.251 8.07c-.637.231-1.31.35-1.988.35-3.216 0-5.848-2.63-5.848-5.847v-.117z" fill="url(#svg-fill-linear__hide-ads)" fill-rule="evenodd"></path></svg>