<svg class="Expand" viewBox="0 0 24 24" width="24px" height="24px" focusable="false" aria-hidden="true" role="presentation"><path class="" fill="url(#svg-fill-linear__control-visibility)" d="M21.556 19.558c.326-.322.513-.76.513-1.219 0-.46-.187-.892-.513-1.218l-6.855-6.878c.786-2.338.067-4.632-1.665-6.355a6.476 6.476 0 0 0-9.14 0 6.513 6.513 0 0 0-.982 7.922 6.502 6.502 0 0 0 7.418 2.945l1.312 1.326c.053.044.125.08.196.08a.276.276 0 0 0 .188-.08l.937-.937a.267.267 0 0 1 .192-.08.26.26 0 0 1 .187.075l.835.848a.264.264 0 0 1-.004.375l-.938.937a.251.251 0 0 0-.09.188c0 .071.037.143.09.192l1.45 1.437a.275.275 0 0 0 .188.076.26.26 0 0 0 .192-.08l.937-.938a.251.251 0 0 1 .188-.09.26.26 0 0 1 .192.09l.919.915a.26.26 0 0 1 .09.192.267.267 0 0 1-.09.187l-.924.938a.231.231 0 0 0-.08.178c0 .076.027.147.08.196l.7.706a1.765 1.765 0 0 0 2.473.017l2-1.963.004.018zM9.166 7.508a2.228 2.228 0 0 1-1.548 1.606 2.237 2.237 0 0 1-2.187-.527 2.278 2.278 0 0 1-.625-2.155 2.252 2.252 0 0 1 2.696-1.59c1.178.296 1.92 1.474 1.651 2.656h.01l.004.01z"></path></svg>